<?xml version="1.0" encoding="utf-8"?>
<!-- Generator: Adobe Illustrator 27.1.1, SVG Export Plug-In . SVG Version: 6.00 Build 0)  -->
<svg version="1.1" id="Camada_1" xmlns="http://www.w3.org/2000/svg" xmlns:xlink="http://www.w3.org/1999/xlink" x="0px" y="0px"
	 viewBox="0 0 200 200" style="enable-background:new 0 0 200 200;" xml:space="preserve">
<style type="text/css">
	.st0{fill:#362412;}
	.st1{fill:#876333;}
	.st2{fill:#543A19;}
	.st3{fill:#BDAE9A;}
	.st4{fill:#D8BC97;}
	.st5{fill:#F7E2C5;}
	.st6{fill:#BC9B71;}
	.st7{fill:#D7D7D6;}
	.st8{fill:#FFFFFF;}
	.st9{fill:#CDBAA0;}
</style>
<g>
	<rect x="35.41" y="23.61" class="st0" width="11.75" height="11.75"/>
	<rect x="47.16" y="23.61" class="st0" width="11.75" height="11.75"/>
	<rect x="58.91" y="23.61" class="st0" width="11.75" height="11.75"/>
	<rect x="82.39" y="23.61" class="st0" width="11.75" height="11.75"/>
	<rect x="94.14" y="23.61" class="st1" width="11.75" height="11.75"/>
	<rect x="105.89" y="23.61" class="st2" width="11.75" height="11.75"/>
	<rect x="117.64" y="23.61" class="st2" width="11.75" height="11.75"/>
	<rect x="129.4" y="23.61" class="st0" width="11.75" height="11.75"/>
	<rect x="141.09" y="23.61" class="st0" width="11.75" height="11.75"/>
	<rect x="94.14" y="11.86" class="st0" width="11.75" height="11.75"/>
	<rect x="105.89" y="11.86" class="st0" width="11.75" height="11.75"/>
	<rect x="117.64" y="11.86" class="st0" width="11.75" height="11.75"/>
	<rect x="35.41" y="35.36" class="st2" width="11.75" height="11.75"/>
	<rect x="23.66" y="35.36" class="st0" width="11.75" height="11.75"/>
	<rect x="47.16" y="35.36" class="st2" width="11.75" height="11.75"/>
	<rect x="58.91" y="35.36" class="st1" width="11.75" height="11.75"/>
	<rect x="82.39" y="35.36" class="st1" width="11.75" height="11.75"/>
	<rect x="70.67" y="35.36" class="st0" width="11.75" height="11.75"/>
	<rect x="94.14" y="35.36" class="st1" width="11.75" height="11.75"/>
	<rect x="105.89" y="35.36" class="st1" width="11.75" height="11.75"/>
	<rect x="117.64" y="35.36" class="st1" width="11.75" height="11.75"/>
	<rect x="129.4" y="35.36" class="st1" width="11.75" height="11.75"/>
	<rect x="141.09" y="35.36" class="st2" width="11.75" height="11.75"/>
	<rect x="152.84" y="35.36" class="st0" width="11.75" height="11.75"/>
	<rect x="35.41" y="47.12" class="st1" width="11.75" height="11.75"/>
	<rect x="23.66" y="47.12" class="st1" width="11.75" height="11.75"/>
	<rect x="11.91" y="47.12" class="st0" width="11.75" height="11.75"/>
	<rect x="47.16" y="47.12" class="st1" width="11.75" height="11.75"/>
	<rect x="58.91" y="47.12" class="st1" width="11.75" height="11.75"/>
	<rect x="82.39" y="47.12" class="st3" width="11.75" height="11.75"/>
	<rect x="70.67" y="47.12" class="st1" width="11.75" height="11.75"/>
	<rect x="94.14" y="47.12" class="st1" width="11.75" height="11.75"/>
	<rect x="105.89" y="47.12" class="st1" width="11.75" height="11.75"/>
	<rect x="117.64" y="47.12" class="st1" width="11.75" height="11.75"/>
	<rect x="129.4" y="47.12" class="st1" width="11.75" height="11.75"/>
	<rect x="141.09" y="47.12" class="st2" width="11.75" height="11.75"/>
	<rect x="152.84" y="47.12" class="st2" width="11.75" height="11.75"/>
	<rect x="164.59" y="47.12" class="st0" width="11.75" height="11.75"/>
	<rect x="35.41" y="58.87" class="st1" width="11.75" height="11.75"/>
	<rect x="23.66" y="58.87" class="st3" width="11.75" height="11.75"/>
	<rect x="11.91" y="58.87" class="st0" width="11.75" height="11.75"/>
	<rect x="47.16" y="58.87" class="st1" width="11.75" height="11.75"/>
	<rect x="58.91" y="58.87" class="st1" width="11.75" height="11.75"/>
	<rect x="82.39" y="58.87" class="st3" width="11.75" height="11.75"/>
	<rect x="70.67" y="58.87" class="st1" width="11.75" height="11.75"/>
	<rect x="94.14" y="58.87" class="st3" width="11.75" height="11.75"/>
	<rect x="105.89" y="58.87" class="st1" width="11.75" height="11.75"/>
	<rect x="117.64" y="58.87" class="st1" width="11.75" height="11.75"/>
	<rect x="129.4" y="58.87" class="st1" width="11.75" height="11.75"/>
	<rect x="141.09" y="58.87" class="st1" width="11.75" height="11.75"/>
	<rect x="152.84" y="58.87" class="st2" width="11.75" height="11.75"/>
	<rect x="164.59" y="58.87" class="st2" width="11.75" height="11.75"/>
	<rect x="176.34" y="58.87" class="st0" width="11.75" height="11.75"/>
	<rect x="35.41" y="70.62" class="st3" width="11.75" height="11.75"/>
	<rect x="23.66" y="70.62" class="st3" width="11.75" height="11.75"/>
	<rect x="11.91" y="70.62" class="st0" width="11.75" height="11.75"/>
	<rect x="47.16" y="70.62" class="st2" width="11.75" height="11.75"/>
	<rect x="58.91" y="70.62" class="st0" width="11.75" height="11.75"/>
	<rect x="82.39" y="70.62" class="st2" width="11.75" height="11.75"/>
	<rect x="70.67" y="70.62" class="st0" width="11.75" height="11.75"/>
	<rect x="94.14" y="70.62" class="st2" width="11.75" height="11.75"/>
	<rect x="105.89" y="70.62" class="st0" width="11.75" height="11.75"/>
	<rect x="117.64" y="70.62" class="st1" width="11.75" height="11.75"/>
	<rect x="129.4" y="70.62" class="st1" width="11.75" height="11.75"/>
	<rect x="141.09" y="70.62" class="st1" width="11.75" height="11.75"/>
	<rect x="152.84" y="70.62" class="st1" width="11.75" height="11.75"/>
	<rect x="164.59" y="70.62" class="st2" width="11.75" height="11.75"/>
	<rect x="176.34" y="70.62" class="st0" width="11.75" height="11.75"/>
	<rect x="35.41" y="82.37" class="st2" width="11.75" height="11.75"/>
	<rect x="23.66" y="82.37" class="st0" width="11.75" height="11.75"/>
	<rect x="47.16" y="82.37" class="st0" width="11.75" height="11.75"/>
	<rect x="58.91" y="82.37" class="st4" width="11.75" height="11.75"/>
	<rect x="82.39" y="82.37" class="st0" width="11.75" height="11.75"/>
	<rect x="70.67" y="82.37" class="st4" width="11.75" height="11.75"/>
	<rect x="94.14" y="82.37" class="st0" width="11.75" height="11.75"/>
	<rect x="105.89" y="82.37" class="st4" width="11.75" height="11.75"/>
	<rect x="117.64" y="82.37" class="st0" width="11.75" height="11.75"/>
	<rect x="129.4" y="82.37" class="st0" width="11.75" height="11.75"/>
	<rect x="141.09" y="82.37" class="st0" width="11.75" height="11.75"/>
	<rect x="152.84" y="82.37" class="st1" width="11.75" height="11.75"/>
	<rect x="164.59" y="82.37" class="st2" width="11.75" height="11.75"/>
	<rect x="176.34" y="82.37" class="st0" width="11.75" height="11.75"/>
	<rect x="35.41" y="94.12" class="st0" width="11.75" height="11.75"/>
	<rect x="47.16" y="94.12" class="st4" width="11.75" height="11.75"/>
	<rect x="58.91" y="94.12" class="st5" width="11.75" height="11.75"/>
	<rect x="82.39" y="94.12" class="st4" width="11.75" height="11.75"/>
	<rect x="70.67" y="94.12" class="st5" width="11.75" height="11.75"/>
	<rect x="94.14" y="94.12" class="st4" width="11.75" height="11.75"/>
	<rect x="105.89" y="94.12" class="st5" width="11.75" height="11.75"/>
	<rect x="117.64" y="94.12" class="st4" width="11.75" height="11.75"/>
	<rect x="129.4" y="94.12" class="st4" width="11.75" height="11.75"/>
	<rect x="141.09" y="94.12" class="st4" width="11.75" height="11.75"/>
	<rect x="152.84" y="94.12" class="st0" width="11.75" height="11.75"/>
	<rect x="164.59" y="94.12" class="st2" width="11.75" height="11.75"/>
	<rect x="176.34" y="94.12" class="st0" width="11.75" height="11.75"/>
	<rect x="35.41" y="105.88" class="st6" width="11.75" height="11.75"/>
	<rect x="47.16" y="105.88" class="st0" width="11.75" height="11.75"/>
	<rect x="58.91" y="105.88" class="st0" width="11.75" height="11.75"/>
	<rect x="82.39" y="105.88" class="st5" width="11.75" height="11.75"/>
	<rect x="70.67" y="105.88" class="st5" width="11.75" height="11.75"/>
	<rect x="94.14" y="105.88" class="st5" width="11.75" height="11.75"/>
	<rect x="105.89" y="105.88" class="st0" width="11.75" height="11.75"/>
	<rect x="117.64" y="105.88" class="st0" width="11.75" height="11.75"/>
	<rect x="129.4" y="105.88" class="st0" width="11.75" height="11.75"/>
	<rect x="141.09" y="105.88" class="st5" width="11.75" height="11.75"/>
	<rect x="152.84" y="105.88" class="st0" width="11.75" height="11.75"/>
	<rect x="164.59" y="105.88" class="st2" width="11.75" height="11.75"/>
	<rect x="176.34" y="105.88" class="st0" width="11.75" height="11.75"/>
	<rect x="35.41" y="117.63" class="st6" width="11.75" height="11.75"/>
	<rect x="47.16" y="117.63" class="st7" width="11.75" height="11.75"/>
	<rect x="58.91" y="117.63" class="st0" width="11.75" height="11.75"/>
	<rect x="82.39" y="117.63" class="st5" width="11.75" height="11.75"/>
	<rect x="70.67" y="117.63" class="st5" width="11.75" height="11.75"/>
	<rect x="94.14" y="117.63" class="st5" width="11.75" height="11.75"/>
	<rect x="105.89" y="117.63" class="st0" width="11.75" height="11.75"/>
	<rect x="117.64" y="117.63" class="st7" width="11.75" height="11.75"/>
	<rect x="129.4" y="117.63" class="st7" width="11.75" height="11.75"/>
	<rect x="141.09" y="117.63" class="st5" width="11.75" height="11.75"/>
	<rect x="152.84" y="117.63" class="st0" width="11.75" height="11.75"/>
	<rect x="164.59" y="117.63" class="st2" width="11.75" height="11.75"/>
	<rect x="176.34" y="117.63" class="st0" width="11.75" height="11.75"/>
	<rect x="35.41" y="129.38" class="st6" width="11.75" height="11.75"/>
	<rect x="47.16" y="129.38" class="st8" width="11.75" height="11.75"/>
	<rect x="58.91" y="129.38" class="st0" width="11.75" height="11.75"/>
	<rect x="82.39" y="129.38" class="st5" width="11.75" height="11.75"/>
	<rect x="70.67" y="129.38" class="st5" width="11.75" height="11.75"/>
	<rect x="94.14" y="129.38" class="st5" width="11.75" height="11.75"/>
	<rect x="105.89" y="129.38" class="st0" width="11.75" height="11.75"/>
	<rect x="117.64" y="129.38" class="st8" width="11.75" height="11.75"/>
	<rect x="129.4" y="129.38" class="st8" width="11.75" height="11.75"/>
	<rect x="141.09" y="129.38" class="st5" width="11.75" height="11.75"/>
	<rect x="152.84" y="129.38" class="st0" width="11.75" height="11.75"/>
	<rect x="164.59" y="129.38" class="st0" width="11.75" height="11.75"/>
	<rect x="35.41" y="141.13" class="st6" width="11.75" height="11.75"/>
	<rect x="47.16" y="141.13" class="st8" width="11.75" height="11.75"/>
	<rect x="58.91" y="141.13" class="st0" width="11.75" height="11.75"/>
	<rect x="82.39" y="141.13" class="st5" width="11.75" height="11.75"/>
	<rect x="70.67" y="141.13" class="st5" width="11.75" height="11.75"/>
	<rect x="94.14" y="141.13" class="st5" width="11.75" height="11.75"/>
	<rect x="105.89" y="141.13" class="st0" width="11.75" height="11.75"/>
	<rect x="117.64" y="141.13" class="st8" width="11.75" height="11.75"/>
	<rect x="129.4" y="141.13" class="st8" width="11.75" height="11.75"/>
	<rect x="141.09" y="141.13" class="st5" width="11.75" height="11.75"/>
	<rect x="152.84" y="141.13" class="st6" width="11.75" height="11.75"/>
	<rect x="35.41" y="152.88" class="st6" width="11.75" height="11.75"/>
	<rect x="47.16" y="152.88" class="st5" width="11.75" height="11.75"/>
	<rect x="58.91" y="152.88" class="st5" width="11.75" height="11.75"/>
	<rect x="82.39" y="152.88" class="st5" width="11.75" height="11.75"/>
	<rect x="70.67" y="152.88" class="st5" width="11.75" height="11.75"/>
	<rect x="94.14" y="152.88" class="st5" width="11.75" height="11.75"/>
	<rect x="105.89" y="152.88" class="st5" width="11.75" height="11.75"/>
	<rect x="117.64" y="152.88" class="st5" width="11.75" height="11.75"/>
	<rect x="129.4" y="152.88" class="st5" width="11.75" height="11.75"/>
	<rect x="141.09" y="152.88" class="st5" width="11.75" height="11.75"/>
	<rect x="152.84" y="152.88" class="st6" width="11.75" height="11.75"/>
	<rect x="47.16" y="164.64" class="st6" width="11.75" height="11.75"/>
	<rect x="58.91" y="164.64" class="st9" width="11.75" height="11.75"/>
	<rect x="82.39" y="164.64" class="st5" width="11.75" height="11.75"/>
	<rect x="70.67" y="164.64" class="st5" width="11.75" height="11.75"/>
	<rect x="94.14" y="164.64" class="st5" width="11.75" height="11.75"/>
	<rect x="105.89" y="164.64" class="st5" width="11.75" height="11.75"/>
	<rect x="117.64" y="164.64" class="st5" width="11.75" height="11.75"/>
	<rect x="129.4" y="164.64" class="st9" width="11.75" height="11.75"/>
	<rect x="141.09" y="164.64" class="st6" width="11.75" height="11.75"/>
	<rect x="152.84" y="164.64" class="st6" width="11.75" height="11.75"/>
	<rect x="47.16" y="176.39" class="st6" width="11.75" height="11.75"/>
	<rect x="58.91" y="176.39" class="st6" width="11.75" height="11.75"/>
	<rect x="82.39" y="176.39" class="st6" width="11.75" height="11.75"/>
	<rect x="70.67" y="176.39" class="st6" width="11.75" height="11.75"/>
	<rect x="94.14" y="176.39" class="st6" width="11.75" height="11.75"/>
	<rect x="105.89" y="176.39" class="st6" width="11.75" height="11.75"/>
	<rect x="117.64" y="176.39" class="st6" width="11.75" height="11.75"/>
	<rect x="129.4" y="176.39" class="st6" width="11.75" height="11.75"/>
</g>
</svg>
